<svg xmlns="http://www.w3.org/2000/svg" viewBox="0 0 206.8 67.5"><defs><style>.a,.b,.c,.d,.e,.f,.g,.h,.i,.j,.k,.l,.m,.n{fill:#404040;}.b,.c,.d,.e,.f,.g,.h,.i,.j,.k,.l,.m,.n{isolation:isolate;font-family:Georgia;}.b{font-size:11.7px;}.c{font-size:19px;}.d{font-size:6.6px;}.e{font-size:4px;}.f{font-size:4px;}.g{font-size:4px;}.h{font-size:4.02px;}.i{font-size:3.99px;}.j{font-size:3.99px;}.k{font-size:4.02px;}.l{font-size:4.01px;}.m{font-size:4px;}.n{font-size:4px;}</style></defs><title>idf-logo-full-texttry</title><path class="a" d="M0,33.8A33.8,33.8,0,1,1,33.8,67.5,33.8,33.8,0,0,1,0,33.8m1,0A32.8,32.8,0,1,0,33.9,1H33.8A32.8,32.8,0,0,0,1,33.8Z" transform="translate(0 0)"/><path class="a" d="M24,23.4a9.8,9.8,0,0,0,2.8-1.8,10.8,10.8,0,0,0,1.8,3.9,6.2,6.2,0,0,0-2.2,1.3A7.1,7.1,0,0,0,24,23.4m11.4-6a9.7,9.7,0,0,0-3.6.5,10.9,10.9,0,0,0-2-5.2c0.1-.1,2.9-1.2,4.7-0.9s1,4.1,1,5.6h0ZM37.1,51l1.1,0.7H29c0.9-.5,1.7-0.9,1.8-1.3a11.6,11.6,0,0,0,0-5.3,6.8,6.8,0,0,0-3.9-3.4,6,6,0,0,0-1.8.7l1,0.7a6.9,6.9,0,0,0-2.2,2.4,8.3,8.3,0,0,0-1.7-1.6,6.2,6.2,0,0,1,2.3-2.4L25,42a3,3,0,0,1,1.3-.7A23.7,23.7,0,0,0,21,40v1.8a12.6,12.6,0,0,0-5.8.7c0-.2-0.6-3,0.1-4.7s4.5,0.1,6.1.4a10.1,10.1,0,0,0-.3,1.3,16.8,16.8,0,0,1,3.8-.2,6.2,6.2,0,0,0-2.5-2,10.8,10.8,0,0,1-2.9-1.9l-1.5.8A10.3,10.3,0,0,0,15.4,31a17.2,17.2,0,0,0,4.2-1.6c0.2,1.4.5,4.3,1.5,5.6a3.9,3.9,0,0,0-1.6.5A10.8,10.8,0,0,0,22.9,37a3.3,3.3,0,0,1,0-1.5H22.2a7.5,7.5,0,0,1,.1-2.6,4.6,4.6,0,0,1,2,.2,5.1,5.1,0,0,0-.6,2.5H22.9a3.2,3.2,0,0,0,.4,1.6,5.5,5.5,0,0,1,3.2,2.5l2.7,0.7a3.7,3.7,0,0,0-.3-1.4l-0.7.2A5,5,0,0,0,27,36.9a6.1,6.1,0,0,1,2-.7,6.3,6.3,0,0,1,.7,2.5H28.9a7.6,7.6,0,0,1,.6,1.6l1.6,0.7A8.8,8.8,0,0,0,29,34.5l-1.6,1.3c-0.5-2.1-3.6-4.8-3.6-4.8a13.6,13.6,0,0,0,3.3-2.4c1.9,1,3.3,3.9,3.6,4.7l-1.5.8L31,35.6l0.7,1a4.1,4.1,0,0,0,1-1.2l-1-.3A8.2,8.2,0,0,0,33,31.8a5.8,5.8,0,0,0,2.3.9,6.7,6.7,0,0,1-1.2,3.4l-1-.5a4.5,4.5,0,0,1-1,1.7c0.6,1.3,1,2.8,1.6,4.2,3.6-3,2.6-8.7,1.9-11.3l-1.7,1.3A13.3,13.3,0,0,0,29.2,27c0.1-.1,2.2-2.7,4.2-3.2s3,3.9,3.9,5.6l-1.3.7a12.6,12.6,0,0,1,1.9,4.5l1.6-1.3L38.8,33a6.2,6.2,0,0,1,2.3-2.4,6.5,6.5,0,0,0,1.7,1.5,6.9,6.9,0,0,0-2.2,2.4l-0.9-.9A12.7,12.7,0,0,0,38,36.7a11.8,11.8,0,0,1-.3,3.7,8.1,8.1,0,0,1,3.3-1,4.2,4.2,0,0,1,2.1-2.7L42,35.4c1.2-1.2,3.5-3.4,4.8-3.7a9.8,9.8,0,0,1,2.7,3.9,12.6,12.6,0,0,0-5.2,2.6l-0.9-1.3a4.9,4.9,0,0,0-1.1,2.4,23.5,23.5,0,0,1,4.6.2,5.2,5.2,0,0,0,.1-1.7c0.8-.1,4,0,5.8,1.3a13.9,13.9,0,0,0-.7,4.1s-3.7-1.6-5.8-1.2a11.2,11.2,0,0,0,.5-1.9A12.3,12.3,0,0,0,40.6,41l2,0.4a2,2,0,0,0,.2-0.7,5.6,5.6,0,0,1,2.9,1.6,4.4,4.4,0,0,0-1.2,1.9,7.6,7.6,0,0,0-2.9-1.5l0.7-1.1a11.2,11.2,0,0,0-2.7-.1L38,42.6a5.2,5.2,0,0,0-1.4,2.1,2.8,2.8,0,0,1,.4,1.4A1.9,1.9,0,0,1,36,48a4.7,4.7,0,0,0,1.1,3h0Zm-1-5.1a0.9,0.9,0,0,0-.5-1,0.9,0.9,0,0,0-.6.9,0.9,0.9,0,0,0,.5,1,0.8,0.8,0,0,0,.6-0.9h0Zm-0.7-1.8c-0.7.2-1,1-.8,2.1a2.1,2.1,0,0,1,.7-1.9c0.3-.2.1-0.3,0.1-0.3h0ZM29.3,23a12.6,12.6,0,0,0-3.8-4.6c0.1-.1,2.3-2.1,4.1-2.5s2.4,3.9,2.9,5.4l-1.7.7a3.5,3.5,0,0,1,0,1.8,8,8,0,0,0-.4-1.6ZM15.8,33.1c-0.4.5-.5,2.7-0.4,4.2a15.8,15.8,0,0,0-5.9-.7,10.2,10.2,0,0,0,.4-4.2C10.8,33.1,14.4,33.2,15.8,33.1Zm9.1-4.8A8.8,8.8,0,0,0,21,29.6c-0.1-1.9-1.9-4.6-2.8-6,1.8-.1,5-1.7,5-1.7C22.8,23.7,23.8,26.5,24.8,28.3Zm15-8.8a7.9,7.9,0,0,0-3,0c-0.2-1.3-.4-4,0.1-5.1a8.1,8.1,0,0,1,3.9.3,10,10,0,0,0-1,4.8h0ZM23.2,21.1s-1.7-2.5-3.1-3a9.4,9.4,0,0,0,2-2.2,7.8,7.8,0,0,1,3,3A8.8,8.8,0,0,0,23.2,21.1ZM42.7,28c1.9-1,3.8-4.6,3.8-4.6a16,16,0,0,0,3.1,2.8c-0.6,2.1-3,4.2-3.7,4.6a4.4,4.4,0,0,0-1-1.1,6.8,6.8,0,0,0-1.7,3,9,9,0,0,1,1.3-3.3Zm9,10.3c0.2-.7-0.7-3-1.5-4.6a16.2,16.2,0,0,0,6.5-2.1,12.9,12.9,0,0,0,1.5,4.6c-1.2-.2-5.1,1.3-6.5,2.1h0Zm-3.1-8.5c1.6-1,3.8-3.1,4.3-4.8a17.6,17.6,0,0,0,3.6,3.6c-1.4.8-4.2,2.5-5.1,4a7.9,7.9,0,0,0-2.8-2.8h0Zm-8-8c0.6-1.2,1.9-4.6,1.8-5.6a11.1,11.1,0,0,0,4,1.3A14.9,14.9,0,0,0,44.7,23c-1.3-.7-3.4-1.5-4-1.3h0Zm-1.3,6a11.5,11.5,0,0,1-1.7,3.7,11.1,11.1,0,0,0,1-3.9L37,27.2c1-1.3,1.2-4.2,1.3-5.6A15.2,15.2,0,0,0,42.6,23c-1.2,1-2,3.6-2.2,5.4Zm-5.9-7.9a6.8,6.8,0,0,0,2.8-.6,12.1,12.1,0,0,0,.8,4,7,7,0,0,0-2.8.6,11.3,11.3,0,0,0-.8-4h0Zm19.1,0.9a7.8,7.8,0,0,0-2.4,3,7.1,7.1,0,0,0-2.2-1c0.4-1,1.1-3,1.8-3.6A6.9,6.9,0,0,1,52.5,20.7ZM15.8,28.5c-0.6-1.6-3.1-3.5-3.1-3.5a14.4,14.4,0,0,0,2.4-2,8.3,8.3,0,0,1,3.2,3.3A10.2,10.2,0,0,0,15.8,28.5Z" transform="translate(0 0)"/><path class="a" d="M16.5,51.3H51v0.5H16.5V51.3Z" transform="translate(0 0)"/><path class="a" d="M14.5,54.7H14.3A28.2,28.2,0,0,1,5.4,36.7a0.3,0.3,0,0,1,.5-0.1,27.8,27.8,0,0,0,8.8,17.6,0.3,0.3,0,0,1,0,.4H14.5Z" transform="translate(0 0)"/><path class="a" d="M53,54.7H52.8a0.3,0.3,0,0,1,0-.4,27.9,27.9,0,0,0,8.8-17.7,0.3,0.3,0,1,1,.5.1,28.6,28.6,0,0,1-8.9,18H53Z" transform="translate(0 0)"/><text class="b" transform="translate(77.5 30.8)">INTERACTION DESIGN</text><text class="c" transform="translate(77.5 49.4)">FOUNDATION</text><text class="d" transform="translate(19.8 59.5)">Est. 2002</text><text class="e" transform="translate(6.9 34.7) rotate(-91.1)">I</text><text class="f" transform="translate(6.9 32.6) rotate(-84.3)">N</text><text class="f" transform="translate(7.3 29.1) rotate(-77.4)">T</text><text class="f" transform="matrix(0.33, -0.94, 0.94, 0.33, 7.96, 26.18)">E</text><text class="f" transform="matrix(0.44, -0.9, 0.9, 0.44, 9, 23.24)">R</text><text class="f" transform="translate(10.5 20.3) rotate(-57.1)">A</text><text class="g" transform="matrix(0.64, -0.77, 0.77, 0.64, 12.22, 17.66)">C</text><text class="h" transform="matrix(0.72, -0.7, 0.7, 0.72, 14.2, 15.31)">T</text><text class="i" transform="matrix(0.78, -0.62, 0.62, 0.78, 16.39, 13.26)">I</text><text class="f" transform="translate(18 12) rotate(-32.8)">O</text><text class="f" transform="translate(20.9 10.1) rotate(-25.3)">N</text><text class="f" transform="matrix(0.97, -0.25, 0.25, 0.97, 25.52, 8.14)">D</text><text class="j" transform="translate(28.9 7.3) rotate(-7.5)">E</text><text class="f" transform="matrix(1, -0.02, 0.02, 1, 31.99, 6.93)">S</text><text class="f" transform="translate(34.7 6.9) rotate(3.7)">I</text><text class="k" transform="translate(36.8 7) rotate(9.7)">G</text><text class="f" transform="translate(40.2 7.6) rotate(17)">N</text><text class="l" transform="translate(44.9 9.3) rotate(27.3)">F</text><text class="g" transform="translate(47.5 10.6) rotate(34)">O</text><text class="m" transform="matrix(0.75, 0.66, -0.66, 0.75, 50.34, 12.57)">U</text><text class="f" transform="translate(53 14.9) rotate(48.8)">N</text><text class="g" transform="translate(55.3 17.6) rotate(56)">D</text><text class="f" transform="translate(57.2 20.5) rotate(63.3)">A</text><text class="n" transform="matrix(0.34, 0.94, -0.94, 0.34, 58.56, 23.36)">T</text><text class="f" transform="translate(59.5 26.2) rotate(75.3)">I</text><text class="f" transform="translate(60.1 28.2) rotate(81.3)">O</text><text class="f" transform="translate(60.6 31.6) rotate(88.7)">N</text></svg>