<?xml version="1.0" standalone="no"?><!DOCTYPE svg PUBLIC "-//W3C//DTD SVG 1.1//EN" "http://www.w3.org/Graphics/SVG/1.1/DTD/svg11.dtd"><svg width="64" height="64" viewBox="0 0 64 64" version="1.1" xmlns="http://www.w3.org/2000/svg" xmlns:xlink="http://www.w3.org/1999/xlink"><defs><style type="text/css"><![CDATA[
@font-face { font-family: ifont; src: url("//at.alicdn.com/t/font_1442373896_4754455.eot?#iefix") format("embedded-opentype"), url("//at.alicdn.com/t/font_1442373896_4754455.woff") format("woff"), url("//at.alicdn.com/t/font_1442373896_4754455.ttf") format("truetype"), url("//at.alicdn.com/t/font_1442373896_4754455.svg#ifont") format("svg"); }

]]></style></defs><g class="transform-group"><g transform="scale(0.0625, 0.0625)"><path d="M365.6 768 365.6 425.8l-109.8 0L255.8 768 365.6 768 365.6 768zM314.8 374c36.6 0 59.4-26.2 59.4-59-0.6-33.4-22.8-59-58.8-59-36 0-59.4 25.6-59.4 59 0 32.8 22.8 59 58 59L314.8 374 314.8 374zM641.2 418c-58.2 0-83.2 32.8-99.2 55.6L542 426l-110 0 0 342 110 0 0-194.8c0-10 0.8-20 3.8-27 8-20 26-40.6 56.4-40.6 39.8 0 55.8 30.6 55.8 75.4L658 768l110 0 0-199.8C768 465.6 713.6 418 641.2 418zM834.4 128 193.6 128C158.6 128 128 153.2 128 187.8l0 642.2c0 34.8 30.6 65.8 65.6 65.8l640.6 0c35.2 0 61.6-31.2 61.6-65.8L895.8 187.8C896 153.2 869.4 128 834.4 128zM828 832c-2.2 0-626.2 0-629.8 0s-6.2-2.8-6.2-6.2S192 198.2 192 196s2-4 4-4 630 0 632 0 4 2 4 4c0 46.6 0 629.8 0 632C832 829.8 830.2 832 828 832z" fill="#000000"></path></g></g></svg>