<?xml version="1.0" standalone="no"?><!DOCTYPE svg PUBLIC "-//W3C//DTD SVG 1.1//EN" "http://www.w3.org/Graphics/SVG/1.1/DTD/svg11.dtd"><svg width="71.3125" height="64" viewBox="0 0 71.3125 64" version="1.1" xmlns="http://www.w3.org/2000/svg" xmlns:xlink="http://www.w3.org/1999/xlink"><defs><style type="text/css"><![CDATA[
@font-face { font-family: ifont; src: url("//at.alicdn.com/t/font_1442373896_4754455.eot?#iefix") format("embedded-opentype"), url("//at.alicdn.com/t/font_1442373896_4754455.woff") format("woff"), url("//at.alicdn.com/t/font_1442373896_4754455.ttf") format("truetype"), url("//at.alicdn.com/t/font_1442373896_4754455.svg#ifont") format("svg"); }

]]></style></defs><g class="transform-group"><g transform="scale(0.0625, 0.0625)"><path d="M250.071579 0C370.526316 11.767018 490.981053 23.534035 610.088421 36.648421 619.070877 80.213333 629.041404 122.610526 638.113684 165.995789 664.701754 124.945965 681.94807 74.734035 709.614035 34.492632 824.858947 67.997193 936.690526 104.915088 1052.384561 137.970526 1079.33193 407.444211 1111.758596 672.157193 1138.61614 942.08 982.680702 965.793684 833.212632 995.974737 677.277193 1019.688421 673.953684 963.368421 673.504561 904.174035 672.965614 845.069474 615.298246 839.859649 552.421053 848.123509 491.879298 847.225263 475.17193 899.14386 468.794386 961.122807 454.871579 1015.017544 303.06807 977.470877 152.701754 938.397193 0 901.12 80.123509 601.105965 163.211228 304.05614 245.76 6.467368 245.344896 3.529156 247.199727 0.746909 250.071579 0L250.071579 0ZM314.385965 66.829474C244.951579 302.439298 178.661053 541.552281 112.101053 780.395789 203.991579 802.043509 294.265263 825.30807 385.886316 847.225263 410.767719 731.980351 431.966316 613.052632 459.183158 500.143158 466.90807 569.30807 479.124211 633.981754 487.208421 702.787368 544.606316 702.787368 600.117895 700.721404 655.36 698.475789 686.439298 627.514386 721.021754 560.05614 754.167018 491.879298 758.658246 611.705263 760.993684 733.687018 763.149474 856.207719 839.410526 844.8 912.707368 830.42807 989.507368 819.559298 992.29193 761.442807 982.860351 704.044912 989.507368 648.892632 999.567719 696.769123 1008.64 750.484211 1019.688421 795.486316 1020.945965 800.69614 1018.341053 813.451228 1028.670877 812.732632 1046.635789 810.93614 1037.653333 790.905263 1037.653333 782.551579 1018.790175 578.739649 988.16 371.78386 968.66807 172.463158 895.281404 153.150877 826.565614 129.167719 753.089123 109.585965 710.332632 184.679298 671.169123 263.365614 628.053333 338.099649 601.105965 254.113684 571.284211 172.10386 543.977544 88.02807 467.087719 80.842105 392.892632 71.859649 314.924912 66.829474L314.385965 66.829474ZM487.38807 122.88C445.799298 133.748772 402.593684 143.000702 358.040702 150.905263 323.368421 246.388772 288.157193 341.333333 254.562807 437.625263 256.089825 410.677895 265.162105 384.538947 271.809123 357.861053 291.570526 278.45614 312.858947 196.805614 332.350877 116.77193 333.793585 114.929142 334.55516 112.644416 334.506667 110.304561 383.640702 115.963509 437.984561 116.77193 487.38807 122.88L487.38807 122.88Z" fill="#000000"></path></g></g></svg>